<svg xmlns="http://www.w3.org/2000/svg" width="101" height="28" viewBox="0 0 101 28">
    <g fill="none" fill-rule="evenodd">
        <path fill="#232933" d="M39.973 6.344V23.58c0 2.336-1.738 4.135-4.05 4.24l-.211.004H30.44l-2.592-3.412h6.896c.877 0 1.713-.79 1.795-1.657l.006-.137v-.788h-7.862c-2.345 0-4.152-1.73-4.256-4.033l-.005-.21V10.63c0-2.293 1.78-4.174 4.053-4.282l.208-.005h11.289zm6.018 0v15.531h-3.427V6.344h3.427zm-24.204 0v15.531h-3.426V6.344h3.426zM15.77.306v21.525H4.48c-2.372 0-4.26-1.881-4.26-4.287v-6.957c0-2.406 1.845-4.243 4.26-4.243h7.863V.306h3.426zm20.777 9.45H29.65c-.915 0-1.713.668-1.794 1.482l-.007.137v5.294c0 .873.793 1.706 1.663 1.787l.138.006v-.043h6.896V9.756zm-24.203 0H5.447c-.967 0-1.801.744-1.801 1.619V16.8c0 .875.834 1.619 1.8 1.619h6.897V9.756zm9.444-9.45V3.72h-3.426V.306h3.426zm24.204 0V3.72h-3.427V.306h3.427z"/>
        <path fill="#0FABC6" fill-rule="nonzero" d="M83.503 6.65v15.269H73.137c-1.933 0-3.383-1.444-3.383-3.369V8.356l1.626-1.225v10.631c.044 2.125 1.363 2.494 2.723 2.494h7.819V6.65h1.581zM87.896.306V6.65h8.785c1.868 0 3.285 1.35 3.378 3.178l.004.19h-.044v8.444c0 1.861-1.395 3.313-3.194 3.408l-.188.005H86.271V.306h1.625zm-20.909 0v21.569h-1.625V.306h1.625zm-4.305 6.256v1.62h-9.4c-2.078.041-2.682 1.103-2.721 2.397l-.002.14v6.956c0 1.352.532 2.459 2.506 2.533l.217.005h9.4v1.618H52.316c-1.826 0-3.282-1.39-3.378-3.221l-.004-.191V9.975c0-1.86 1.395-3.313 3.194-3.408l.188-.005h10.366zM95.715 8.27h-7.82v11.987h7.82c2.468 0 2.71-1.108 2.723-2.41v-7.04c0-1.4-.22-2.493-2.723-2.537z"/>
    </g>
</svg>
