<svg xmlns="http://www.w3.org/2000/svg" width="19" height="18" viewBox="0 0 19 18">
    <path fill="#A63489" d="M11.51 10.515c-.65.65-1.158 1.411-1.51 2.235-.352-.824-.86-1.585-1.51-2.235C7.84 9.862 7.076 9.353 6.25 9c.826-.353 1.589-.863 2.24-1.515.65-.65 1.158-1.412 1.51-2.235.352.823.86 1.585 1.51 2.235.651.652 1.414 1.162 2.24 1.515-.826.353-1.589.862-2.24 1.515m5.375-3.085h-.132v.004c-.02 0-.039-.003-.059-.001-1.382.104-2.753-.398-3.743-1.388-.99-.989-1.49-2.36-1.387-3.743.002-.019 0-.036 0-.055v-.132c0-.34-.275-.615-.615-.615H9.041c-.34 0-.615.275-.615.615v.132l.008.002c0 .017-.002.035 0 .053.103 1.383-.398 2.754-1.388 3.743-.99.99-2.36 1.492-3.743 1.388h-.055l-.001-.003h-.132c-.34 0-.615.276-.615.615v1.909c0 .34.275.615.615.615h.084c.034.004.069.005.104.003 1.383-.104 2.754.397 3.743 1.387.99.99 1.49 2.36 1.387 3.744-.001.016 0 .032.001.048l-.008.002v.132c0 .34.275.615.615.615h1.908c.34 0 .615-.276.615-.615v-.132c0-.017.002-.033 0-.05-.103-1.383.398-2.754 1.387-3.744.99-.99 2.36-1.49 3.743-1.387.036.002.07.001.105-.003h.086c.34 0 .615-.276.615-.615V8.045c0-.34-.276-.615-.615-.615"/>
</svg>
