<svg width="154" height="41" viewBox="0 0 154 41" fill="none" xmlns="http://www.w3.org/2000/svg">
<path fill-rule="evenodd" clip-rule="evenodd" d="M103 26H112V14H103C101.447 14 100 15.4507 100 17V23C100 24.5496 101.447 26 103 26ZM139 26H148V14H139C137.447 14 136 15.4507 136 17V23C136 24.5496 137.447 26 139 26ZM118 9.5V30.5C118 31.1618 117.164 32 116.5 32L113.5 32.0315C112.836 32.0315 112 31.162 112 30.5V29.5L110.639 31.1345C110.224 31.6984 109.201 32 108.5 32H103C98.174 32 94 27.8147 94 23V17C94 12.1853 98.174 8 103 8H116.5C117.163 8 118 8.83888 118 9.5ZM154 9.5V30.5C154 31.1618 153.164 32 152.5 32L149.5 32.0315C148.836 32.0315 148 31.162 148 30.5V29.5L146.639 31.1345C146.224 31.6984 145.201 32 144.5 32H139C134.174 32 130 27.8147 130 23V17C130 12.1853 134.174 8 139 8H152.5C153.163 8 154 8.83888 154 9.5ZM54 14H45C43.4468 14 42 15.4507 42 17V23C42 24.5498 43.4468 26 45 26H54V14ZM60 9.5V32V32.5C60 37.3147 55.826 41 51 41H46.3624C45.6723 41 45.0221 40.6772 44.6059 40.1279L41.9661 36.6424C41.5276 36.0639 41.7729 35 42.5 35H51C52.553 35 54 34.0493 54 32.5V32H45C40.1743 32 36 27.8147 36 23V17C36 12.1855 40.1743 8 45 8H50.5C51.1883 8 51.9384 8.55367 52.4243 9L54 10.5V9.5C54 8.8391 54.8378 8 55.5 8H58.5C59.1636 8 60 8.83775 60 9.5ZM6 23C6 24.5493 7.44704 26 9 26H18V14H9C7.44704 14 6 15.4507 6 17V23ZM22.5 0C23.164 0 24 0.837973 24 1.5V30.5C24 31.1618 23.164 32 22.5 32H19.5C18.8362 32 18 31.1623 18 30.5V29.5L16.4271 31.1831C16.001 31.6564 15.1792 32 14.5 32H9C4.17405 32 0 27.8147 0 23V17.0458C0 12.2311 4.17405 8 9 8H18V1.5C18 0.837973 18.8362 0 19.5 0H22.5ZM84.5 20L92.8505 9.43009C93.315 8.85402 92.9042 7.99793 92.1633 7.99793H87.3872C87.0261 7.99793 86.6842 8.1601 86.4557 8.43943L78 19V1.5C78 0.837973 77.1636 0 76.5 0H73.5C72.8362 0 72 0.837973 72 1.5V30.5C72 31.162 72.8362 32 73.5 32H76.5C77.1638 32 78 31.162 78 30.5V21L86.4602 31.5839C86.6883 31.8666 87.0324 32.0315 87.3965 32.0315H92.1676C92.9085 32.0315 93.3198 31.175 92.855 30.5991L84.5 20ZM64.5 0C63.8367 0 63 0.837973 63 1.5V4.5C63 5.16203 63.8367 6 64.5 6H67.5C68.1636 6 69 5.16203 69 4.5V1.5C69 0.837973 68.1636 0 67.5 0H64.5ZM64.5 8C63.8367 8 63 8.8382 63 9.5V30.5C63 31.1618 64.0718 32.0313 64.7352 32.0313L67.5 32C68.1636 32 69 31.1618 69 30.5V9.5C69 8.8382 68.1636 8 67.5 8H64.5ZM28.5 0C27.8364 0 27 0.837973 27 1.5V4.5C27 5.16203 27.8364 6 28.5 6H31.5C32.1636 6 33 5.16203 33 4.5V1.5C33 0.837973 32.1636 0 31.5 0H28.5ZM28.5 8C27.8364 8 27 8.8382 27 9.5V30.5C27 31.1618 27.8364 32 28.5 32H31.5C32.1636 32 33 31.1618 33 30.5V9.5C33 8.8382 32.1636 8 31.5 8H28.5ZM127 1.5V30.5C127 31.1618 126.164 32 125.5 32H122.5C121.836 32 121 31.1618 121 30.5V1.5C121 0.837973 121.836 0 122.5 0H125.5C126.164 0 127 0.837973 127 1.5Z" fill="#EF394E"/>
</svg>
