<svg xmlns="http://www.w3.org/2000/svg" xmlns:xlink="http://www.w3.org/1999/xlink" width="115" height="24" viewBox="0 0 115 24">
    <defs>
        <path id="mcfmdg2y8a" d="M56.182 14.182h4.909V7.636h-4.91c-.846 0-1.636.792-1.636 1.637v3.272c0 .846.79 1.637 1.637 1.637zm19.636 0h4.91V7.636h-4.91c-.847 0-1.636.792-1.636 1.637v3.272c0 .846.79 1.637 1.636 1.637zm-11.454-9v11.454c0 .361-.456.819-.819.819l-1.636.017c-.362 0-.818-.475-.818-.836v-.545l-.743.891c-.226.308-.784.473-1.166.473h-3c-2.633 0-4.91-2.283-4.91-4.91V9.273c0-2.626 2.277-4.91 4.91-4.91h7.363c.362 0 .819.458.819.819zm19.636 0v11.454c0 .361-.456.819-.818.819l-1.636.017c-.363 0-.819-.475-.819-.836v-.545l-.742.891c-.226.308-.784.473-1.167.473h-3c-2.632 0-4.909-2.283-4.909-4.91V9.273c0-2.626 2.277-4.91 4.91-4.91h7.363c.361 0 .818.458.818.819zM29.455 7.636h-4.91c-.847 0-1.636.792-1.636 1.637v3.272c0 .846.79 1.637 1.636 1.637h4.91V7.636zm3.272-2.454v12.545c0 2.626-2.276 4.637-4.909 4.637h-2.53c-.376 0-.73-.176-.958-.476l-1.44-1.901c-.239-.316-.105-.896.292-.896h4.636c.847 0 1.637-.519 1.637-1.364v-.272h-4.91c-2.632 0-4.909-2.283-4.909-4.91V9.273c0-2.626 2.277-4.91 4.91-4.91h3c.375 0 .784.303 1.05.546l.859.818v-.545c0-.36.457-.818.818-.818h1.636c.362 0 .818.457.818.818zM3.273 12.545c0 .846.789 1.637 1.636 1.637h4.91V7.636h-4.91c-.847 0-1.636.792-1.636 1.637v3.272zm9-12.545c.362 0 .818.457.818.818v15.818c0 .361-.456.819-.818.819h-1.637c-.362 0-.818-.457-.818-.819v-.545l-.858.918c-.232.258-.68.446-1.05.446h-3c-2.633 0-4.91-2.283-4.91-4.91V9.298c0-2.626 2.277-4.934 4.91-4.934h4.908V.818c0-.36.456-.818.818-.818h1.637zM46.09 10.91l4.555-5.766c.253-.315.029-.781-.375-.781h-2.605c-.197 0-.384.088-.508.24l-4.613 5.76V.819c0-.36-.456-.818-.818-.818h-1.636c-.362 0-.818.457-.818.818v15.818c0 .361.456.819.818.819h1.636c.362 0 .818-.458.818-.819v-5.181l4.615 5.773c.125.154.312.244.51.244h2.603c.404 0 .629-.467.375-.782l-4.557-5.78zM35.18 0c-.361 0-.817.457-.817.818v1.637c0 .36.456.818.818.818h1.636c.362 0 .818-.457.818-.818V.818c0-.36-.456-.818-.818-.818h-1.636zm0 4.364c-.361 0-.817.457-.817.818v11.454c0 .361.584.836.946.836l1.508-.017c.362 0 .818-.458.818-.819V5.182c0-.361-.456-.818-.818-.818h-1.636zM15.546 0c-.361 0-.818.457-.818.818v1.637c0 .36.457.818.818.818h1.637c.362 0 .818-.457.818-.818V.818c0-.36-.456-.818-.818-.818h-1.637zm0 4.364c-.361 0-.818.457-.818.818v11.454c0 .361.457.819.818.819h1.637c.362 0 .818-.458.818-.819V5.182c0-.361-.456-.818-.818-.818h-1.637zM69.273.818v15.818c0 .361-.456.819-.818.819h-1.637c-.362 0-.818-.458-.818-.819V.818c0-.36.456-.818.818-.818h1.637c.362 0 .818.457.818.818z"/>
    </defs>
    <g fill="none" fill-rule="evenodd">
        <g>
            <path fill="#62666D" d="M23.459.453c1.955 0 3.449 1.486 3.449 3.431v5.577c0 1.927-1.531 3.468-3.449 3.468H.35V.453zm-2.36 2.606c-2.066 0-3.634 1.596-3.634 3.577 0 1.963 1.55 3.56 3.726 3.56 1.991 0 3.411-1.303 3.411-3.285v-.55h-3.467v1.192h2.103c-.24.79-.94 1.303-2.029 1.303-1.457 0-2.38-.972-2.38-2.238 0-1.303.941-2.257 2.27-2.257.848 0 1.549.404 1.862.954l1.162-.66c-.59-.936-1.697-1.596-3.025-1.596zm-16.617.146H3.08v6.862h1.365v-4.44L6.4 8.801h.166L8.52 5.627v4.44h1.347V3.205H8.465L6.473 6.453 4.482 3.205zm10.198 0h-1.696l-2.435 6.843h1.476l.424-1.229h2.766l.406 1.23h1.494L14.68 3.204z" transform="translate(.735) translate(85.5 4.5)"/>
            <path fill="#636363" d="M13.832 4.765L12.873 7.572 14.791 7.572z" transform="translate(.735) translate(85.5 4.5)"/>
        </g>
        <g transform="translate(.735) translate(0 .194)">
            <mask id="nqmu5u69gb" fill="#fff">
                <use xlink:href="#mcfmdg2y8a"/>
            </mask>
            <use fill="#EE384E" xlink:href="#mcfmdg2y8a"/>
            <g fill="#62666D" mask="url(#nqmu5u69gb)">
                <path d="M0 0H85.091V22.364H0z"/>
            </g>
        </g>
    </g>
</svg>
