<svg xmlns="http://www.w3.org/2000/svg" width="82" height="23" viewBox="0 0 82 23">
    <defs>
        <filter id="a58lq22y7a">
            <feColorMatrix in="SourceGraphic" values="0 0 0 0 0.384314 0 0 0 0 0.400000 0 0 0 0 0.427451 0 0 0 1.000000 0"/>
        </filter>
    </defs>
    <g fill="none" fill-rule="evenodd" filter="url(#a58lq22y7a)" transform="translate(-585 -1)">
        <path fill="#0040FF" fill-rule="nonzero" d="M618.27 6.412v12.176c0 2.99-2.416 5.412-5.396 5.412h-2.697l-1.518-2.706h4.215c1.49 0 2.698-1.211 2.698-2.706h-5.395c-2.98 0-5.395-2.423-5.395-5.412v-1.352c0-2.99 2.415-5.412 5.395-5.412h8.092zm37.765 0v6.764c0 1.495 1.208 2.706 2.697 2.706h5.395v-9.47h2.698v12.176c0 2.99-2.416 5.412-5.395 5.412h-2.698l-1.517-2.706h4.215c1.49 0 2.697-1.211 2.697-2.706h-5.395c-2.98 0-5.395-2.423-5.395-5.412V6.412h2.698zm-24.278 0c2.98 0 5.395 2.423 5.395 5.412v1.352c0 2.99-2.415 5.412-5.395 5.412h-5.395V24h-2.698V6.412zm20.231 0v12.176h-8.092c-2.98 0-5.395-2.423-5.395-5.412v-1.352c0-2.99 2.415-5.412 5.395-5.412h8.092zm-48.555 0v12.176h-2.698V6.412h2.698zM599.387 1v17.588h-8.093c-2.98 0-5.395-2.423-5.395-5.412v-1.352c0-2.99 2.415-5.412 5.395-5.412h5.395V1h2.698zm22.929 5.412v12.176h-2.698V6.412h2.698zm-6.744 2.706h-5.395c-1.49 0-2.698 1.211-2.698 2.706v1.352c0 1.495 1.208 2.706 2.698 2.706h5.395V9.118zm33.719 0h-5.395c-1.49 0-2.698 1.211-2.698 2.706v1.352c0 1.495 1.208 2.706 2.698 2.706h5.395V9.118zm-52.602 0h-5.395c-1.49 0-2.697 1.211-2.697 2.706v1.352c0 1.495 1.207 2.706 2.697 2.706h5.395V9.118zm35.068 0h-5.395v6.764h5.395c1.49 0 2.698-1.211 2.698-2.706v-1.352c0-1.495-1.208-2.706-2.698-2.706zM603.433 1v2.706h-2.698V1h2.698zm18.883 0v2.706h-2.698V1h2.698z"/>
    </g>
</svg>
