<?xml version="1.0" encoding="UTF-8"?>
<svg width="118px" height="33px" viewBox="0 0 118 33" version="1.1" xmlns="http://www.w3.org/2000/svg" xmlns:xlink="http://www.w3.org/1999/xlink">
    <!-- Generator: Sketch 54.1 (76490) - https://sketchapp.com -->
    <title>digi club-final-ci book-02</title>
    <desc>Created with Sketch.</desc>
    <g id="Page-1" stroke="none" stroke-width="1" fill="none" fill-rule="evenodd">
        <g id="Artboard" transform="translate(-176.000000, -89.000000)">
            <g id="digi-club-final-ci-book-02" transform="translate(176.000000, 89.000000)">
                <rect id="Rectangle" fill="#AEAEAE" x="50.15" y="7.4765625" width="4.03684211" height="18.3046875"></rect>
                <rect id="Rectangle" fill="#AEAEAE" x="21.6333333" y="7.4765625" width="4.03684211" height="18.3046875"></rect>
                <path d="M34.9342105,21.759375 C33.8473684,21.759375 32.8122807,20.728125 32.8122807,19.6453125 L32.8122807,13.40625 C32.8122807,12.375 33.795614,11.4984375 34.9342105,11.4984375 L43.0596491,11.4984375 L43.0596491,21.1921875 L43.0596491,21.1921875 L43.0596491,21.7078125 L34.9342105,21.7078125 L34.9342105,21.759375 Z M47.0964912,7.4765625 L33.795614,7.4765625 C31.0008772,7.4765625 28.7754386,9.7453125 28.7754386,12.5296875 L28.7754386,20.728125 C28.7754386,23.5640625 30.9491228,25.7296875 33.795614,25.7296875 L43.0596491,25.7296875 L43.0596491,26.6578125 C43.0596491,27.740625 42.0245614,28.771875 40.9377193,28.771875 L36.9008772,28.771875 L32.8122807,28.771875 L35.8657895,32.79375 L42.0763158,32.79375 C44.922807,32.79375 47.0964912,30.628125 47.0964912,27.7921875 L47.0964912,25.7296875 L47.0964912,25.7296875 L47.0964912,7.4765625 Z" id="Shape" fill="#AEAEAE" fill-rule="nonzero"></path>
                <rect id="Rectangle" fill="#AEAEAE" x="21.6333333" y="0.3609375" width="4.03684211" height="4.021875"></rect>
                <rect id="Rectangle" fill="#AEAEAE" x="50.15" y="0.3609375" width="4.03684211" height="4.021875"></rect>
                <path d="M14.5429825,21.7078125 L6.41754386,21.7078125 C5.27894737,21.7078125 4.29561404,20.83125 4.29561404,19.8 L4.29561404,19.59375 C4.29561404,19.59375 4.29561404,19.59375 4.29561404,19.59375 L4.29561404,13.40625 C4.29561404,12.375 5.27894737,11.4984375 6.41754386,11.4984375 L14.5429825,11.4984375 L14.5429825,11.4984375 L14.5429825,11.4984375 L14.5429825,21.7078125 L14.5429825,21.7078125 Z M14.5429825,0.3609375 L14.5429825,7.3734375 L14.5429825,7.4765625 L5.27894737,7.4765625 C2.43245614,7.4765625 0.25877193,9.6421875 0.25877193,12.478125 L0.25877193,20.6765625 C0.25877193,23.5125 2.48421053,25.7296875 5.27894737,25.7296875 L18.5798246,25.7296875 L18.5798246,8.3015625 L18.5798246,7.3734375 L18.5798246,0.3609375 L14.5429825,0.3609375 Z" id="Shape" fill="#AEAEAE" fill-rule="nonzero"></path>
                <rect id="Rectangle" fill="#828282" x="77.0105263" y="0.3609375" width="1.91491228" height="25.4203125"></rect>
                <g id="Group" transform="translate(57.447368, 0.000000)" fill="#828282">
                    <path d="M58.5342105,20.8828125 C58.5342105,22.48125 58.327193,23.8734375 55.3254386,23.8734375 L46.1131579,23.8734375 L46.1131579,9.7453125 L55.3254386,9.7453125 C58.2754386,9.796875 58.5342105,11.0859375 58.5342105,12.7359375 L58.5342105,15.984375 L58.5342105,20.8828125 Z M60.4491228,11.8078125 C60.4491228,9.5390625 58.7412281,7.8375 56.4640351,7.8375 L46.1131579,7.8375 L46.1131579,0.3609375 L44.1982456,0.3609375 L44.1982456,25.78125 L56.4122807,25.78125 C58.6377193,25.78125 60.3973684,24.028125 60.3973684,21.759375 L60.3973684,15.675 L60.3973684,11.8078125 L60.4491228,11.8078125 Z" id="Shape" fill-rule="nonzero"></path>
                    <path d="M2.12192982,15.5203125 L2.12192982,12.6328125 C2.12192982,11.034375 2.79473684,9.69375 5.33070175,9.6421875 L16.4061404,9.6421875 L16.4061404,7.734375 L4.19210526,7.734375 C1.96666667,7.734375 0.207017544,9.4875 0.207017544,11.75625 L0.207017544,15.46875 L0.207017544,15.5203125 L0.207017544,21.7078125 C0.207017544,23.9765625 1.96666667,25.7296875 4.19210526,25.7296875 L16.4061404,25.7296875 L16.4061404,23.821875 L5.33070175,23.821875 C2.79473684,23.821875 2.12192982,22.48125 2.12192982,20.83125 L2.12192982,15.571875 L2.12192982,15.5203125 Z" id="Path"></path>
                    <path d="M39.0745614,7.8375 L39.0745614,19.284375 L39.0745614,19.284375 L39.0745614,23.8734375 L29.8622807,23.8734375 C28.2061404,23.8734375 26.6017544,23.409375 26.6535088,20.6765625 L26.6535088,17.3765625 L26.6535088,17.3765625 L26.6535088,8.4046875 L24.7385965,9.8484375 L24.7385965,11.859375 L24.7385965,17.428125 L24.7385965,21.8625 C24.7385965,24.13125 26.4464912,25.8328125 28.7236842,25.8328125 L40.9377193,25.8328125 L40.9377193,7.8375 L39.0745614,7.8375 Z" id="Path"></path>
                </g>
            </g>
        </g>
    </g>
</svg>