<svg xmlns="http://www.w3.org/2000/svg" xmlns:xlink="http://www.w3.org/1999/xlink" width="138" height="23" viewBox="0 0 138 23">
    <defs>
        <path id="fwjvhivs3a" d="M56.182 14.182h4.909V7.636h-4.91c-.846 0-1.636.792-1.636 1.637v3.272c0 .846.79 1.637 1.637 1.637zm19.636 0h4.91V7.636h-4.91c-.847 0-1.636.792-1.636 1.637v3.272c0 .846.79 1.637 1.636 1.637zm-11.454-9v11.454c0 .361-.456.819-.819.819l-1.636.017c-.362 0-.818-.475-.818-.836v-.545l-.743.891c-.226.308-.784.473-1.166.473h-3c-2.633 0-4.91-2.283-4.91-4.91V9.273c0-2.626 2.277-4.91 4.91-4.91h7.363c.362 0 .819.458.819.819zm19.636 0v11.454c0 .361-.456.819-.818.819l-1.636.017c-.363 0-.819-.475-.819-.836v-.545l-.742.891c-.226.308-.784.473-1.167.473h-3c-2.632 0-4.909-2.283-4.909-4.91V9.273c0-2.626 2.277-4.91 4.91-4.91h7.363c.361 0 .818.458.818.819zM29.455 7.636h-4.91c-.847 0-1.636.792-1.636 1.637v3.272c0 .846.79 1.637 1.636 1.637h4.91V7.636zm3.272-2.454v12.545c0 2.626-2.276 4.637-4.909 4.637h-2.53c-.376 0-.73-.176-.958-.476l-1.44-1.901c-.239-.316-.105-.896.292-.896h4.636c.847 0 1.637-.519 1.637-1.364v-.272h-4.91c-2.632 0-4.909-2.283-4.909-4.91V9.273c0-2.626 2.277-4.91 4.91-4.91h3c.375 0 .784.303 1.05.546l.859.818v-.545c0-.36.457-.818.818-.818h1.636c.362 0 .818.457.818.818zM3.273 12.545c0 .846.789 1.637 1.636 1.637h4.91V7.636h-4.91c-.847 0-1.636.792-1.636 1.637v3.272zm9-12.545c.362 0 .818.457.818.818v15.818c0 .361-.456.819-.818.819h-1.637c-.362 0-.818-.457-.818-.819v-.545l-.858.918c-.232.258-.68.446-1.05.446h-3c-2.633 0-4.91-2.283-4.91-4.91V9.298c0-2.626 2.277-4.934 4.91-4.934h4.908V.818c0-.36.456-.818.818-.818h1.637zM46.09 10.91l4.555-5.766c.253-.315.029-.781-.375-.781h-2.605c-.197 0-.384.088-.508.24l-4.613 5.76V.819c0-.36-.456-.818-.818-.818h-1.636c-.362 0-.818.457-.818.818v15.818c0 .361.456.819.818.819h1.636c.362 0 .818-.458.818-.819v-5.181l4.615 5.773c.125.154.312.244.51.244h2.603c.404 0 .629-.467.375-.782l-4.557-5.78zM35.18 0c-.361 0-.817.457-.817.818v1.637c0 .36.456.818.818.818h1.636c.362 0 .818-.457.818-.818V.818c0-.36-.456-.818-.818-.818h-1.636zm0 4.364c-.361 0-.817.457-.817.818v11.454c0 .361.584.836.946.836l1.508-.017c.362 0 .818-.458.818-.819V5.182c0-.361-.456-.818-.818-.818h-1.636zM15.546 0c-.361 0-.818.457-.818.818v1.637c0 .36.457.818.818.818h1.637c.362 0 .818-.457.818-.818V.818c0-.36-.456-.818-.818-.818h-1.637zm0 4.364c-.361 0-.818.457-.818.818v11.454c0 .361.457.819.818.819h1.637c.362 0 .818-.458.818-.819V5.182c0-.361-.456-.818-.818-.818h-1.637zM69.273.818v15.818c0 .361-.456.819-.818.819h-1.637c-.362 0-.818-.458-.818-.819V.818c0-.36.456-.818.818-.818h1.637c.362 0 .818.457.818.818z"/>
    </defs>
    <g fill="none" fill-rule="evenodd">
        <path fill="#62666D" fill-rule="nonzero" d="M86.22 4.855h45.132c2.485 0 4.5 2.015 4.5 4.5v3.408c0 2.485-2.015 4.5-4.5 4.5H86.22V4.855zm4.611 9.171l.631-1.223h2.72l.174 1.223h1.447L94.608 7.23h-1.66l-3.583 6.797h1.466zm3.166-2.476h-1.884l1.476-2.835.408 2.835zm3.806 2.476l.457-2.622h2.64l.234-1.281h-2.641l.281-1.612h2.71l.232-1.282h-4.058l-1.195 6.797h1.34zm5.04 0l.456-2.622h2.641l.234-1.281h-2.642l.282-1.612h2.71l.232-1.282h-4.059l-1.194 6.797h1.34zm5.04 0l1.194-6.797h-1.34l-1.194 6.797h1.34zm5.195 0l.223-1.282h-2.593l.971-5.515h-1.34l-.97 5.515-.224 1.282h3.933zm2.097 0l1.194-6.797h-1.34l-1.194 6.797h1.34zm2.117 0l.631-1.223h2.719l.175 1.223h1.447l-1.195-6.797h-1.66l-3.583 6.797h1.466zm3.166-2.476h-1.884l1.476-2.835.408 2.835zm4.631 2.476l.971-5.515h1.836l.223-1.282h-5l-.224 1.282h1.825l-.97 5.515h1.34zm6.788 0l.223-1.282h-2.864l.272-1.524h2.563l.233-1.253h-2.583l.262-1.456h2.816l.224-1.282h-4.156l-1.195 6.797h4.205z" transform="translate(.723)"/>
        <g transform="translate(.723)">
            <mask id="vcbj5c8htb" fill="#fff">
                <use xlink:href="#fwjvhivs3a"/>
            </mask>
            <use fill="#EE384E" xlink:href="#fwjvhivs3a"/>
            <g fill="#62666D" mask="url(#vcbj5c8htb)">
                <path d="M0 0H85.091V22.364H0z"/>
            </g>
        </g>
    </g>
</svg>
